<svg xmlns="http://www.w3.org/2000/svg" xmlns:xlink="http://www.w3.org/1999/xlink" viewBox="0 0 472 82"><defs><style>.cls-1{fill:#fff;}.cls-2{fill:#7b84b2;}.cls-3,.cls-4{fill:none;stroke-miterlimit:10;stroke-width:4px;}.cls-3{stroke:url(#linear-gradient);}.cls-4{stroke:url(#linear-gradient-2);}.cls-5{fill:#7e43ff;}.cls-6{fill:#8445ff;}.cls-7{fill:#485eff;}</style><linearGradient id="linear-gradient" x1="37.1" y1="44.39" x2="66.88" y2="44.39" gradientUnits="userSpaceOnUse"><stop offset="0" stop-color="#fff33b"/><stop offset="0" stop-color="#fed81d"/><stop offset="0" stop-color="#fedc21"/><stop offset="0" stop-color="#ffe62c"/><stop offset="0" stop-color="#ffe930"/><stop offset="0" stop-color="#ffe127"/><stop offset="0" stop-color="#fdc70c"/><stop offset="0" stop-color="#9375fa"/><stop offset="0" stop-color="#a982ff"/><stop offset="1" stop-color="#5a90ff"/><stop offset="1" stop-color="#485eff"/></linearGradient><linearGradient id="linear-gradient-2" x1="7.32" y1="36.54" x2="20.95" y2="36.54" xlink:href="#linear-gradient"/></defs><title>banner</title><g id="Layer_2" data-name="Layer 2"><g id="Layer_1-2" data-name="Layer 1"><rect class="cls-1" width="82" height="82"/><rect class="cls-1" width="472" height="82"/><path class="cls-2" d="M99.6,31.6v6.9H95.4V20.7h6.2a7.9,7.9,0,0,1,4.9,1.4,4.8,4.8,0,0,1,1.8,3.9,4,4,0,0,1-.7,2.4,5.8,5.8,0,0,1-2.1,1.6,4.2,4.2,0,0,1,2.3,1.5,5,5,0,0,1,.7,2.7v1.2a8.9,8.9,0,0,0,.2,1.5,2.6,2.6,0,0,0,.7,1.3v.3h-4.2a2.3,2.3,0,0,1-.7-1.4c0-.6-.1-1.2-.1-1.8v-1a2.6,2.6,0,0,0-.7-2,2.7,2.7,0,0,0-1.9-.7Zm0-3.1h2a2.5,2.5,0,0,0,1.9-.6,1.9,1.9,0,0,0,.7-1.6,2.4,2.4,0,0,0-.7-1.8,2.7,2.7,0,0,0-1.9-.6h-2Z"/><path class="cls-2" d="M117,38.7a6.1,6.1,0,0,1-4.7-1.8,6.3,6.3,0,0,1-1.7-4.6v-.5a7.2,7.2,0,0,1,1.6-4.9,5.6,5.6,0,0,1,4.6-1.9,5.4,5.4,0,0,1,4.2,1.6,6.1,6.1,0,0,1,1.4,4.4v2.1h-7.5a2.4,2.4,0,0,0,.7,1.7,2.9,2.9,0,0,0,1.9.6,5.9,5.9,0,0,0,2-.2l1.8-.6,1,2.5a6.2,6.2,0,0,1-2.3,1.1A9.9,9.9,0,0,1,117,38.7Zm-.2-10.5a1.7,1.7,0,0,0-1.4.6,3.8,3.8,0,0,0-.6,1.7h3.6v-.3a3.5,3.5,0,0,0-.3-1.6A1.7,1.7,0,0,0,116.8,28.2Z"/><path class="cls-2" d="M131.8,38.4a3.9,3.9,0,0,1-.4-.9,3.6,3.6,0,0,1-.2-1.1,4.7,4.7,0,0,1-1.4,1.7,3.2,3.2,0,0,1-2,.6,4,4,0,0,1-3.2-1.1,3.6,3.6,0,0,1-1.2-2.9,3.4,3.4,0,0,1,1.5-3,7.8,7.8,0,0,1,4.5-1.1h1.7v-.9a2.2,2.2,0,0,0-.4-1.3,1.7,1.7,0,0,0-1.3-.5,1.3,1.3,0,0,0-1,.4,1.2,1.2,0,0,0-.4,1h-4a3.2,3.2,0,0,1,1.5-3,7,7,0,0,1,4.2-1.2,6.3,6.3,0,0,1,4,1.2,4.3,4.3,0,0,1,1.5,3.5v5a6.8,6.8,0,0,0,.2,2,12.1,12.1,0,0,0,.5,1.8Zm-2.9-2.6a1.8,1.8,0,0,0,1.3-.4,2.4,2.4,0,0,0,.9-.8V32.8h-1.7a1.8,1.8,0,0,0-1.4.5,1.7,1.7,0,0,0-.5,1.2,1.3,1.3,0,0,0,.4.9A1.3,1.3,0,0,0,128.9,35.8Z"/><path class="cls-2" d="M141.8,38.5h-4.2V19.4h4.2Z"/><path class="cls-2" d="M152,32.4h-7.2V29.2H152Z"/><path class="cls-2" d="M167.6,23.9h-4.7V38.5h-4.1V23.9h-4.7V20.7h13.5Z"/><path class="cls-2" d="M173.3,22.2h-4.1V19.4h4.1Zm0,16.3h-4.1V25.3h4.1Z"/><path class="cls-2" d="M179.7,25.3l.2,1.7a4.2,4.2,0,0,1,3.7-2,4.3,4.3,0,0,1,2.1.5,3.4,3.4,0,0,1,1.4,1.7,4.1,4.1,0,0,1,1.6-1.6,3.8,3.8,0,0,1,2.2-.6,3.6,3.6,0,0,1,3,1.4c.8.9,1.1,2.3,1.1,4.3v7.8h-4.1V30.7a3.3,3.3,0,0,0-.4-2,1.7,1.7,0,0,0-1.2-.5l-1,.2a1.6,1.6,0,0,0-.8.6v9.5h-4.1V30.7a3.3,3.3,0,0,0-.4-2,1.7,1.7,0,0,0-1.2-.5l-1,.2a1.6,1.6,0,0,0-.8.6v9.5h-4.1V25.3Z"/><path class="cls-2" d="M203.3,38.7a6.5,6.5,0,0,1-4.8-1.8,6.7,6.7,0,0,1-1.7-4.6v-.5a7.3,7.3,0,0,1,1.7-4.9,5.5,5.5,0,0,1,4.6-1.9,5,5,0,0,1,4.1,1.6,6.2,6.2,0,0,1,1.5,4.4v2.1h-7.6a2.5,2.5,0,0,0,.8,1.7,2.7,2.7,0,0,0,1.9.6,5.9,5.9,0,0,0,2-.2l1.8-.6,1,2.5a7,7,0,0,1-2.3,1.1A10.3,10.3,0,0,1,203.3,38.7Zm-.2-10.5a1.8,1.8,0,0,0-1.5.6,2.9,2.9,0,0,0-.5,1.7h3.6v-.3a2.5,2.5,0,0,0-.4-1.6A1.4,1.4,0,0,0,203.1,28.2Z"/><path class="cls-2" d="M221.1,35.3h7.6v3.2H216.9V20.7h4.2Z"/><path class="cls-2" d="M230.1,31.7a6.9,6.9,0,0,1,1.7-4.8,6.8,6.8,0,0,1,9.4,0,6.9,6.9,0,0,1,1.7,4.8V32a6.9,6.9,0,0,1-1.7,4.8,6.8,6.8,0,0,1-9.4,0,6.9,6.9,0,0,1-1.7-4.8Zm4.1.3a6,6,0,0,0,.5,2.6,2,2,0,0,0,1.8.9,1.8,1.8,0,0,0,1.7-.9,4.8,4.8,0,0,0,.6-2.6v-.3a4.6,4.6,0,0,0-.6-2.5,1.7,1.7,0,0,0-1.7-1,1.9,1.9,0,0,0-1.8,1,5.8,5.8,0,0,0-.5,2.5Z"/><path class="cls-2" d="M250.3,35.5a1.7,1.7,0,0,0,1.3-.4,1.8,1.8,0,0,0,.4-1.3h3.8a4.8,4.8,0,0,1-1.5,3.6,5.7,5.7,0,0,1-4,1.3,5.9,5.9,0,0,1-4.6-1.8,7.2,7.2,0,0,1-1.6-4.9v-.3a6.8,6.8,0,0,1,1.6-4.8,5.6,5.6,0,0,1,4.6-1.9,5.7,5.7,0,0,1,4,1.4,4.6,4.6,0,0,1,1.5,3.8H252a2.4,2.4,0,0,0-.4-1.5,1.5,1.5,0,0,0-1.3-.6,1.6,1.6,0,0,0-1.6.9,5,5,0,0,0-.5,2.6V32a4.8,4.8,0,0,0,.5,2.6A1.6,1.6,0,0,0,250.3,35.5Z"/><path class="cls-2" d="M265.1,38.4a3.9,3.9,0,0,1-.4-.9,3.6,3.6,0,0,1-.2-1.1,4.7,4.7,0,0,1-1.4,1.7,3.2,3.2,0,0,1-2,.6,4,4,0,0,1-3.2-1.1,3.6,3.6,0,0,1-1.2-2.9,3.4,3.4,0,0,1,1.5-3,7.8,7.8,0,0,1,4.5-1.1h1.7v-.9a2.2,2.2,0,0,0-.4-1.3,1.7,1.7,0,0,0-1.3-.5,1.3,1.3,0,0,0-1,.4,1.2,1.2,0,0,0-.4,1h-4a3.2,3.2,0,0,1,1.5-3A7,7,0,0,1,263,25a6.3,6.3,0,0,1,4,1.2,4.3,4.3,0,0,1,1.5,3.5v5a6.8,6.8,0,0,0,.2,2,12.1,12.1,0,0,0,.5,1.8Zm-2.9-2.6a2.3,2.3,0,0,0,1.4-.4,3,3,0,0,0,.8-.8V32.8h-1.7a1.8,1.8,0,0,0-1.4.5,1.7,1.7,0,0,0-.5,1.2,1.3,1.3,0,0,0,.4.9A1.3,1.3,0,0,0,262.2,35.8Z"/><path class="cls-2" d="M275.1,38.5h-4.2V19.4h4.2Z"/><path class="cls-2" d="M281.9,22.2h-4.1V19.4h4.1Zm0,16.3h-4.1V25.3h4.1Z"/><path class="cls-2" d="M289.3,35.3h6v3.2H284.1V36.2l5.8-7.8h-5.6V25.3h10.9v2.2Z"/><path class="cls-2" d="M304.9,38.4a3.9,3.9,0,0,1-.4-.9,3.6,3.6,0,0,1-.2-1.1,5.9,5.9,0,0,1-1.3,1.7,3.7,3.7,0,0,1-2.1.6,4,4,0,0,1-3.2-1.1,3.6,3.6,0,0,1-1.2-2.9,3.4,3.4,0,0,1,1.5-3,7.8,7.8,0,0,1,4.5-1.1h1.7v-.9a2.2,2.2,0,0,0-.4-1.3,1.7,1.7,0,0,0-1.3-.5,1.5,1.5,0,0,0-1,.4,1.2,1.2,0,0,0-.4,1h-4a3.2,3.2,0,0,1,1.5-3,7,7,0,0,1,4.2-1.2,6.3,6.3,0,0,1,4,1.2,4.3,4.3,0,0,1,1.5,3.5v5a13.6,13.6,0,0,0,.2,2,12.1,12.1,0,0,0,.5,1.8ZM302,35.8a2.3,2.3,0,0,0,1.4-.4,3,3,0,0,0,.8-.8V32.8h-1.7a2,2,0,0,0-1.4.5,1.7,1.7,0,0,0-.5,1.2,1.3,1.3,0,0,0,.4.9A1.3,1.3,0,0,0,302,35.8Z"/><path class="cls-2" d="M315.3,22v3.3h2.1v2.8h-2.1v6.1a1.5,1.5,0,0,0,.3,1,1,1,0,0,0,.8.3h.9l.3,3-1.1.2h-1.2a3.9,3.9,0,0,1-3.1-1.1,4.6,4.6,0,0,1-1-3.4V28.1h-1.9V25.3h1.9V22Z"/><path class="cls-2" d="M323.7,22.2h-4.1V19.4h4.1Zm0,16.3h-4.1V25.3h4.1Z"/><path class="cls-2" d="M325.7,31.7a6.4,6.4,0,0,1,1.7-4.8,6.8,6.8,0,0,1,9.4,0,6.9,6.9,0,0,1,1.7,4.8V32a6.9,6.9,0,0,1-1.7,4.8,6.8,6.8,0,0,1-9.4,0,6.4,6.4,0,0,1-1.7-4.8Zm4.1.3a6,6,0,0,0,.5,2.6,2,2,0,0,0,1.8.9,1.8,1.8,0,0,0,1.7-.9,4.8,4.8,0,0,0,.5-2.6v-.3a4.7,4.7,0,0,0-.5-2.5,1.7,1.7,0,0,0-1.7-1,1.8,1.8,0,0,0-1.8,1,5.8,5.8,0,0,0-.5,2.5Z"/><path class="cls-2" d="M344.1,25.3v1.8a4.5,4.5,0,0,1,1.6-1.5A4.3,4.3,0,0,1,348,25a3.5,3.5,0,0,1,3,1.3,6.8,6.8,0,0,1,1.1,4.2v8H348v-8a4,4,0,0,0-.4-1.8,1.7,1.7,0,0,0-1.2-.5l-1.2.2a3.1,3.1,0,0,0-.9.7v9.4h-4.1V25.3Z"/><path class="cls-2" d="M370,33.7a1.5,1.5,0,0,0-.7-1.4,6.3,6.3,0,0,0-2.2-1.1,16,16,0,0,1-4.9-2.3,4.1,4.1,0,0,1-1.6-3.5,4.3,4.3,0,0,1,1.8-3.6,8.3,8.3,0,0,1,4.8-1.4,7.7,7.7,0,0,1,4.9,1.5,4.6,4.6,0,0,1,1.8,4h-4.1a2.4,2.4,0,0,0-.6-1.8,3.3,3.3,0,0,0-2.1-.6,2.6,2.6,0,0,0-1.8.6,1.8,1.8,0,0,0-.6,1.3,1.5,1.5,0,0,0,.6,1.3l2.5,1.2a12.9,12.9,0,0,1,4.7,2.2,4.4,4.4,0,0,1,1.6,3.6,4.3,4.3,0,0,1-1.8,3.7,8.3,8.3,0,0,1-4.9,1.3,9.3,9.3,0,0,1-5.1-1.4,4.8,4.8,0,0,1-2-4.5h4a2.7,2.7,0,0,0,.8,2.2,3.2,3.2,0,0,0,2.3.7,3.1,3.1,0,0,0,1.9-.5A1.6,1.6,0,0,0,370,33.7Z"/><path class="cls-2" d="M381.2,32.6h.1l2.2-7.4h4.4l-5.3,15.1a6,6,0,0,1-1.6,2.4,3.8,3.8,0,0,1-3,1h-.9l-1.1-.2.5-3h.5a2.6,2.6,0,0,0,1.4-.3,1.8,1.8,0,0,0,.7-.8l.3-.9-4.5-13.3h4.3Z"/><path class="cls-2" d="M395.8,34.7a1,1,0,0,0-.5-.8,5.7,5.7,0,0,0-2-.7,8.2,8.2,0,0,1-3.5-1.4,3.1,3.1,0,0,1-1.2-2.6,3.7,3.7,0,0,1,1.5-3A5.9,5.9,0,0,1,394,25a6.6,6.6,0,0,1,4.2,1.2,3.2,3.2,0,0,1,1.5,3h-4a1.6,1.6,0,0,0-.4-1.2,2.2,2.2,0,0,0-1.3-.4,1.5,1.5,0,0,0-1.1.4,1,1,0,0,0-.4.9,1.4,1.4,0,0,0,.5.9,6.8,6.8,0,0,0,2.1.6,7.7,7.7,0,0,1,3.5,1.4,3.4,3.4,0,0,1,1.2,2.7,3.5,3.5,0,0,1-1.6,3,7.2,7.2,0,0,1-4.2,1.1,5.6,5.6,0,0,1-4.2-1.4,3.4,3.4,0,0,1-1.5-3H392a2,2,0,0,0,.6,1.4,2.4,2.4,0,0,0,1.5.4,2.3,2.3,0,0,0,1.3-.3A1.2,1.2,0,0,0,395.8,34.7Z"/><path class="cls-2" d="M406.5,22v3.3h2.1v2.8h-2.1v6.1a1.5,1.5,0,0,0,.3,1,.9.9,0,0,0,.7.3h1l.3,3-1.1.2h-1.2a3.8,3.8,0,0,1-3.1-1.1,4.6,4.6,0,0,1-1-3.4V28.1h-1.9V25.3h1.9V22Z"/><path class="cls-2" d="M416.4,38.7a6.3,6.3,0,0,1-4.7-1.8,6.7,6.7,0,0,1-1.7-4.6v-.5a7.8,7.8,0,0,1,1.6-4.9,5.7,5.7,0,0,1,4.7-1.9,5.3,5.3,0,0,1,4.1,1.6,6.2,6.2,0,0,1,1.5,4.4v2.1h-7.6a2.5,2.5,0,0,0,.8,1.7,2.7,2.7,0,0,0,1.9.6,6.2,6.2,0,0,0,2-.2l1.8-.6.9,2.5a5.7,5.7,0,0,1-2.2,1.1A10.6,10.6,0,0,1,416.4,38.7Zm-.1-10.5a1.8,1.8,0,0,0-1.5.6,2.9,2.9,0,0,0-.5,1.7h3.6v-.3a3.4,3.4,0,0,0-.4-1.6A1.5,1.5,0,0,0,416.3,28.2Z"/><path class="cls-2" d="M427.5,25.3l.2,1.7a5.4,5.4,0,0,1,1.5-1.5,5.4,5.4,0,0,1,2.2-.5,4.6,4.6,0,0,1,2.1.5,3.4,3.4,0,0,1,1.4,1.7,4.6,4.6,0,0,1,1.5-1.6,4.4,4.4,0,0,1,2.3-.6,3.6,3.6,0,0,1,3,1.4,6.9,6.9,0,0,1,1.1,4.3v7.8h-4.1V30.7a4.3,4.3,0,0,0-.4-2,1.7,1.7,0,0,0-1.2-.5l-1.1.2a1.3,1.3,0,0,0-.7.6v9.5h-4.2V30.7a4.6,4.6,0,0,0-.3-2,1.7,1.7,0,0,0-1.3-.5l-1,.2a1.3,1.3,0,0,0-.7.6v9.5h-4.2V25.3Z"/><path class="cls-2" d="M95.2,54.1V44.8h2.6a4.5,4.5,0,0,1,1.6.3,3.4,3.4,0,0,1,1.2.9,2.9,2.9,0,0,1,.8,1.3,4.7,4.7,0,0,1,.3,1.7v.9a4.7,4.7,0,0,1-.3,1.7,3.5,3.5,0,0,1-.8,1.3,3,3,0,0,1-1.3.9,4.1,4.1,0,0,1-1.6.3Zm.8-8.6v7.9h1.7a3.2,3.2,0,0,0,1.4-.3,2.3,2.3,0,0,0,1-.7,3.9,3.9,0,0,0,.6-1.1,3.2,3.2,0,0,0,.2-1.4V49a3.8,3.8,0,0,0-.8-2.6l-1-.7-1.3-.2Z"/><path class="cls-2" d="M105.4,51.6l.3,1.4.3-1.4,2-6.8h.7l2,6.8.4,1.4.3-1.4,1.6-6.8h.8l-2.3,9.3h-.8l-2.1-7.3-.2-.9-.2.9L106,54.1h-.7l-2.4-9.3h.8Z"/><path class="cls-2" d="M116.4,44.8l3.4,8.2,3.4-8.2h1.1v9.3h-.8V45.9l-3.4,8.2h-.6l-3.4-8.2v8.2h-.8V44.8Z"/><path class="cls-2" d="M129.8,54.1h-.7V45.7l-2.5,1V46l3.1-1.2h.1Z"/><path class="cls-2" d="M139.1,50.2a9,9,0,0,1-.2,1.8,2.3,2.3,0,0,1-.6,1.2,1.6,1.6,0,0,1-.9.7,2.1,2.1,0,0,1-1.2.3,2,2,0,0,1-1.1-.3,1.6,1.6,0,0,1-.9-.7,2.3,2.3,0,0,1-.6-1.2,9,9,0,0,1-.2-1.8V48.6a8.8,8.8,0,0,1,.2-1.7,3.3,3.3,0,0,1,.5-1.2,3.2,3.2,0,0,1,.9-.8l1.2-.2,1.2.2a1.8,1.8,0,0,1,.9.8,2.3,2.3,0,0,1,.6,1.2,8.8,8.8,0,0,1,.2,1.7Zm-.8-1.7a5.4,5.4,0,0,0-.5-2.4,1.8,1.8,0,0,0-1.6-.8,1.6,1.6,0,0,0-1.5.8,4.3,4.3,0,0,0-.6,2.4v1.8a5.9,5.9,0,0,0,.2,1.4,3,3,0,0,0,.4,1,1.7,1.7,0,0,0,.6.6,1.5,1.5,0,0,0,.9.2,1.6,1.6,0,0,0,1-.2,1.7,1.7,0,0,0,.6-.6,3,3,0,0,0,.4-1,6.1,6.1,0,0,0,.1-1.4Z"/><path class="cls-2" d="M146.3,50.2a9,9,0,0,1-.2,1.8,2.3,2.3,0,0,1-.6,1.2,1.6,1.6,0,0,1-.9.7,2.1,2.1,0,0,1-1.2.3,2,2,0,0,1-1.1-.3,1.6,1.6,0,0,1-.9-.7,2.3,2.3,0,0,1-.6-1.2,9,9,0,0,1-.2-1.8V48.6a8.8,8.8,0,0,1,.2-1.7,2.3,2.3,0,0,1,.6-1.2,2,2,0,0,1,.8-.8l1.2-.2,1.2.2a1.8,1.8,0,0,1,.9.8,2.3,2.3,0,0,1,.6,1.2,8.8,8.8,0,0,1,.2,1.7Zm-.8-1.7a5.4,5.4,0,0,0-.5-2.4,1.8,1.8,0,0,0-1.6-.8,1.6,1.6,0,0,0-1.5.8,4.3,4.3,0,0,0-.5,2.4v1.8a6.1,6.1,0,0,0,.1,1.4,3,3,0,0,0,.4,1,1.7,1.7,0,0,0,.6.6,1.5,1.5,0,0,0,.9.2,1.6,1.6,0,0,0,1-.2,1.7,1.7,0,0,0,.6-.6,3,3,0,0,0,.4-1,6.1,6.1,0,0,0,.1-1.4Z"/><path class="cls-2" d="M151.4,54.1h-.7V45.7l-2.5,1V46l3.1-1.2h.1Z"/><path class="cls-2" d="M164.9,44.8v6.3a2.8,2.8,0,0,1-.9,2.3,2.7,2.7,0,0,1-1,.6l-1.3.2-1.3-.2a2.1,2.1,0,0,1-1-.6,1.8,1.8,0,0,1-.7-1,2.5,2.5,0,0,1-.3-1.3V44.8h.8v6.3a3,3,0,0,0,.2,1,1.6,1.6,0,0,0,.5.8l.8.5h2l.8-.5a2.8,2.8,0,0,0,.5-.8,3,3,0,0,0,.2-1V44.8Z"/><path class="cls-2" d="M168.8,51.6l.3,1.4.4-1.4,2-6.8h.7l2,6.8.3,1.4.3-1.4,1.7-6.8h.8l-2.4,9.3h-.7l-2.1-7.3-.3-.9-.2.9-2.2,7.3h-.7l-2.4-9.3h.8Z"/><path class="cls-2" d="M178.8,54.1V44.8h2.7l1.3.2a2.5,2.5,0,0,1,.9.4,1.3,1.3,0,0,1,.6.7,2.2,2.2,0,0,1,.2,1.1,1.5,1.5,0,0,1-.1.7.9.9,0,0,1-.3.6.8.8,0,0,1-.4.4.9.9,0,0,1-.6.3l.7.3.6.5.3.7a1.9,1.9,0,0,1,.2.8,2,2,0,0,1-.3,1.1,1.6,1.6,0,0,1-.6.8,1.9,1.9,0,0,1-.9.5l-1.2.2Zm.8-5.1h2.1a3.3,3.3,0,0,0,1.5-.5,1.9,1.9,0,0,0,0-2.6,2.7,2.7,0,0,0-1.7-.4h-1.9Zm0,.6v3.8h3.2l.7-.4.4-.6a1.7,1.7,0,0,0,0-1.6.9.9,0,0,0-.3-.5l-.7-.4-.9-.2Z"/><path class="cls-2" d="M193.4,50.2h-2.7v3.9h-.8V44.8h3l1.3.2a3.1,3.1,0,0,1,1,.5,1.5,1.5,0,0,1,.6.9,2,2,0,0,1,.2,1.1,2.8,2.8,0,0,1-.1.9,1.6,1.6,0,0,1-.4.7l-.6.6a1.9,1.9,0,0,1-.8.3l2.3,4h-.8Zm-2.7-.7H194a1.8,1.8,0,0,0,.7-.5c.2-.1.3-.4.4-.6a3.3,3.3,0,0,0,0-1.6,1.8,1.8,0,0,0-.5-.7l-.7-.4h-3.2Z"/><path class="cls-2" d="M202.3,54.1c0-.2-.1-.3-.1-.5v-.5l-.4.4-.6.4-.6.2h-.8l-.9-.2-.7-.4c-.2-.1-.3-.4-.4-.6a1.9,1.9,0,0,1-.2-.8,2.9,2.9,0,0,1,.2-.9,4.6,4.6,0,0,1,.7-.7l.9-.4h2.8v-.8a1.7,1.7,0,0,0-.5-1.2,1.7,1.7,0,0,0-1.3-.4h-.8l-.5.3a1,1,0,0,0-.4.5.8.8,0,0,0-.2.5h-.7a1.2,1.2,0,0,1,.2-.8l.5-.6.8-.5h2.1a2,2,0,0,1,.8.4,1.8,1.8,0,0,1,.5.7,1.6,1.6,0,0,1,.2,1V53a.8.8,0,0,0,.1.4v.3a.4.4,0,0,1,.1.3h-.8Zm-2.4-.6h.8l.6-.3a1,1,0,0,0,.5-.4l.4-.5V50.6h-1.3l-1.1.2a1.1,1.1,0,0,0-.8.3l-.5.4a1.5,1.5,0,0,0-.1.7.9.9,0,0,0,.1.5l.3.4.5.3Z"/><path class="cls-2" d="M204.6,50.6a6.1,6.1,0,0,1,.2-1.5,3.7,3.7,0,0,1,.5-1.1l.9-.7a2,2,0,0,1,1.1-.2,2.1,2.1,0,0,1,1.2.3,1.4,1.4,0,0,1,.9.8V44.3h.8v9.8h-.7v-1a1.8,1.8,0,0,1-.9.8,2.1,2.1,0,0,1-1.2.3,2,2,0,0,1-1.1-.3,2.8,2.8,0,0,1-.9-.7,3.7,3.7,0,0,1-.5-1.1,5.9,5.9,0,0,1-.2-1.4Zm.8.1a3.7,3.7,0,0,0,.1,1.1,1.9,1.9,0,0,0,.4.9,1.7,1.7,0,0,0,.6.6,1.5,1.5,0,0,0,.9.2h.7l.6-.2.4-.4.3-.5V49.1l-.3-.5-.4-.5-.5-.3h-.8l-.9.2-.6.6a3.6,3.6,0,0,0-.4.9,4.9,4.9,0,0,0-.1,1.2Z"/><path class="cls-2" d="M212.1,45.2a.8.8,0,0,1,.2-.4h.7a.8.8,0,0,1,.2.4l-.2.4h-.7A.8.8,0,0,1,212.1,45.2Zm.9,8.9h-.7V47.2h.7Z"/><path class="cls-2" d="M214.7,50.5a3.4,3.4,0,0,1,.2-1.4,3,3,0,0,1,.6-1.1l1-.7,1.2-.2,1.3.2,1,.7.6,1.1a6.8,6.8,0,0,1,.2,1.4v.2a5.9,5.9,0,0,1-.2,1.4l-.6,1.1a2.3,2.3,0,0,1-1,.7,2.8,2.8,0,0,1-1.3.3,2.4,2.4,0,0,1-1.2-.3,2.3,2.3,0,0,1-1-.7,2.4,2.4,0,0,1-.6-1.1,3.2,3.2,0,0,1-.2-1.4Zm.7.2a3.6,3.6,0,0,0,.2,1.1,3.6,3.6,0,0,0,.4.9,1.9,1.9,0,0,0,.7.6,1.8,1.8,0,0,0,1,.2,1.6,1.6,0,0,0,1-.2,1.3,1.3,0,0,0,.7-.6,4.1,4.1,0,0,0,.5-.9,3.7,3.7,0,0,0,.1-1.1v-.2a3.4,3.4,0,0,0-.1-1,1.9,1.9,0,0,0-.5-.9,2.3,2.3,0,0,0-.7-.7l-1-.2-1,.2a2.3,2.3,0,0,0-.7.7,1.9,1.9,0,0,0-.4.9,3.6,3.6,0,0,0-.2,1Z"/><path class="cls-2" d="M226.5,52.3c0-.1-.1-.3-.1-.4s-.1-.3-.3-.4l-.5-.4-1-.2-1-.3-.7-.4a1.2,1.2,0,0,1-.5-.5,1.9,1.9,0,0,1-.2-.8,1.9,1.9,0,0,1,.2-.7l.5-.6.7-.4h2.1l.8.5a1.5,1.5,0,0,1,.5.6,2.4,2.4,0,0,1,.2.8h-.8a.9.9,0,0,0-.1-.5l-.3-.5-.6-.3h-1.5l-.5.3c-.2.1-.2.2-.3.4a.6.6,0,0,0-.1.4c0,.2,0,.3.1.4a.5.5,0,0,0,.2.4l.6.3.9.2,1.1.4a2,2,0,0,1,.8.4l.4.5a3.3,3.3,0,0,1,0,1.6,3.4,3.4,0,0,1-.6.6,1.5,1.5,0,0,1-.8.3l-1,.2-1.2-.2-.8-.4a1.8,1.8,0,0,1-.5-.7,1.9,1.9,0,0,1-.2-.8h.8a1.4,1.4,0,0,0,.2.7c.1.2.3.3.4.4l.6.3h1.5l.5-.2.4-.4C226.4,52.6,226.5,52.5,226.5,52.3Z"/><path class="cls-3" d="M37.1,16.8a27.6,27.6,0,1,1,0,55.1"/><path class="cls-4" d="M10.2,51.2a28,28,0,0,1-.9-6.8,25.5,25.5,0,0,1,1.3-8.2,25.1,25.1,0,0,1,4.9-9.1,27.8,27.8,0,0,1,4.2-4.2"/><ellipse class="cls-5" cx="64.9" cy="47.1" rx="9.8" ry="9.7"/><ellipse class="cls-6" cx="35.2" cy="16.8" rx="9.8" ry="9.7"/><ellipse class="cls-7" cx="19.1" cy="65.2" rx="9.8" ry="9.7"/></g></g></svg>